<svg height="511.99979pt" viewBox="0 0 511.99979 511.99979" width="511.99979pt" xmlns="http://www.w3.org/2000/svg"><path d="m326.8125 286.585938-119.175781 61.484374-21.851563 21.851563-43.707031-43.707031 21.851563-21.851563 61.484374-119.175781 23.382813 23.382812-50.144531 93.621094c-3.851563 7.191406 3.964844 15.007813 11.15625 11.15625l93.621094-50.144531zm0 0" fill="#e62753"/><path d="m29.84375 508.378906-26.222656-26.222656c-4.828125-4.828125-4.828125-12.65625 0-17.484375l138.457031-138.457031 43.707031 43.707031-138.457031 138.457031c-4.828125 4.828125-12.65625 4.828125-17.484375 0zm0 0" fill="#71f6fc"/><path d="m163.929688 348.070312-138.457032 138.457032c-4.828125 4.828125-12.652344 4.828125-17.480468 0l21.851562 21.851562c4.828125 4.828125 12.65625 4.828125 17.484375 0l138.453125-138.457031zm0 0" fill="#3be3eb"/><path d="m502.789062 110.726562c2.929688-2.929687 2.929688-7.675781 0-10.605468-2.929687-2.925782-7.675781-2.929688-10.605468 0l-1.253906 1.253906-19.695313-19.699219 18.734375-18.734375c2.929688-2.929687 2.929688-7.675781 0-10.605468-2.929688-2.929688-7.679688-2.929688-10.605469 0l-18.734375 18.734374-19.699218-19.699218 18.734374-18.734375c2.929688-2.929688 2.929688-7.675781 0-10.605469-2.929687-2.929688-7.675781-2.929688-10.605468 0l-18.734375 18.734375-19.699219-19.695313 1.253906-1.253906c2.929688-2.929687 2.929688-7.675781 0-10.605468-2.929687-2.929688-7.679687-2.929688-10.605468 0l-1.257813 1.253906c-2.933594-2.867188-7.636719-2.851563-10.542969.058594-2.910156 2.910156-2.925781 7.609374-.058594 10.542968l-19.699218 19.699219-18.65625-18.65625c-2.925782-2.929687-7.675782-2.929687-10.605469 0s-2.929687 7.675781 0 10.605469l18.65625 18.65625-19.695313 19.699218-25.242187-25.242187c-2.929687-2.929687-7.679687-2.929687-10.609375 0-2.925781 2.929687-2.925781 7.675781 0 10.605469l25.242188 25.242187-19.695313 19.695313-25.242187-25.242188c-2.929688-2.925781-7.679688-2.925781-10.605469 0-2.929688 2.929688-2.929688 7.679688 0 10.609375l25.242187 25.242188-19.699218 19.695312-18.65625-18.65625c-2.929688-2.929687-7.675782-2.929687-10.605469 0-2.929688 2.929688-2.929688 7.675781 0 10.605469l18.65625 18.65625-19.699219 19.703125c-2.933594-2.871094-7.636719-2.855469-10.546875.054687-2.90625 2.910157-2.925781 7.609376-.054687 10.542969l-1.253907 1.257813c-2.929687 2.929687-2.929687 7.675781 0 10.605468 1.464844 1.464844 3.382813 2.195313 5.300781 2.195313 1.921876 0 3.839844-.730469 5.304688-2.195313l1.253906-1.253906 19.695313 19.699219-18.734375 18.734375c-2.929688 2.929688-2.929688 7.679688 0 10.605469 1.464844 1.464843 3.382812 2.199219 5.300781 2.199219 1.921875 0 3.839844-.734376 5.304687-2.199219l18.734376-18.734375 19.699218 19.699218-18.738281 18.734376c-2.925781 2.929687-2.925781 7.675781 0 10.605468 1.464844 1.464844 3.386719 2.195313 5.304687 2.195313 1.917969 0 3.839844-.730469 5.300782-2.195313l18.738281-18.734375 19.695313 19.695313-1.253907 1.253906c-2.929687 2.929688-2.929687 7.675781 0 10.605469 1.464844 1.464843 3.386719 2.195312 5.304688 2.195312s3.839843-.730469 5.300781-2.195312l1.257812-1.253907c1.457032 1.425782 3.347657 2.140626 5.242188 2.140626 1.917969 0 3.835938-.730469 5.300781-2.195313 2.910157-2.910156 2.925781-7.613281.058594-10.546875l19.699219-19.699219 18.65625 18.65625c1.464844 1.464844 3.382812 2.195313 5.304687 2.195313 1.917969 0 3.835938-.730469 5.300781-2.195313 2.929688-2.929687 2.929688-7.675781 0-10.605469l-18.65625-18.65625 19.695313-19.699218 25.246094 25.242187c1.460937 1.464844 3.382812 2.199219 5.300781 2.199219s3.839844-.734375 5.304688-2.199219c2.929687-2.929687 2.929687-7.675781 0-10.605469l-25.246094-25.242187 19.699218-19.699219 25.242188 25.246094c1.464844 1.460938 3.382812 2.195312 5.304688 2.195312 1.917968 0 3.835937-.734374 5.300781-2.195312 2.929687-2.933594 2.929687-7.679688 0-10.609375l-25.242188-25.242187 19.695313-19.695313 18.65625 18.65625c1.464844 1.464844 3.386718 2.195313 5.304687 2.195313s3.839844-.730469 5.304688-2.195313c2.925781-2.929687 2.925781-7.675781 0-10.605469l-18.660157-18.65625 19.703126-19.703125c1.457031 1.425781 3.347656 2.144531 5.242187 2.144531 1.917969 0 3.835937-.734374 5.300781-2.199218 2.910156-2.910156 2.925782-7.609375.054688-10.542969zm-52.769531-29.050781-19.695312 19.695313-19.699219-19.695313 19.699219-19.695312zm-100 60.605469 19.695313-19.695312 19.699218 19.699218-19.695312 19.695313zm9.089844 30.304688-19.699219 19.695312-19.695312-19.695312 19.695312-19.695313zm21.214844-60.605469 19.695312-19.695313 19.695313 19.695313-19.695313 19.695312zm19.695312-80.304688 19.699219 19.699219-19.699219 19.695312-19.695312-19.699218zm-30.304687 30.304688 19.699218 19.695312-19.699218 19.699219-19.695313-19.699219zm-30.300782 30.304687 19.695313 19.695313-19.695313 19.695312-19.695312-19.695312zm-30.304687 30.300782 19.699219 19.699218-19.699219 19.695313-19.695313-19.699219zm-50 50 19.695313-19.695313 19.699218 19.695313-19.699218 19.699218zm30.304687 30.304687 19.695313-19.695313 19.699219 19.695313-19.699219 19.695313zm50 50-19.695312-19.695313 19.695312-19.699218 19.695313 19.695312zm30.300782-30.304687-19.695313-19.695313 19.699219-19.699219 19.695312 19.699219zm30.304687-30.304688-19.695312-19.695312 19.695312-19.695313 19.699219 19.695313zm30.304688-30.300781-19.699219-19.695313 19.695312-19.699218 19.699219 19.699218zm10.605469-50 19.699218-19.699219 19.695313 19.699219-19.695313 19.695312zm0 0" fill="#594f69"/><path d="m482.261719 29.738281c-48.277344-48.277343-138.292969-36.535156-201.054688 26.226563-62.757812 62.757812-74.5 152.769531-26.222656 201.050781 48.277344 48.277344 138.292969 36.53125 201.046875-26.222656 62.765625-62.761719 74.507812-152.777344 26.230469-201.054688zm-136.105469 225.171875c-28.261719 3.6875-52.867188-3.335937-69.300781-19.765625-16.429688-16.433593-23.453125-41.039062-19.765625-69.300781 4.074218-31.238281 20.394531-62.511719 45.9375-88.054688 25.554687-25.554687 56.828125-41.871093 88.066406-45.949218 28.257812-3.6875 52.863281 3.335937 69.296875 19.769531 16.433594 16.429687 23.453125 41.039063 19.765625 69.296875-4.074219 31.238281-20.390625 62.511719-45.945312 88.0625-25.546876 25.546875-56.816407 41.863281-88.054688 45.941406zm0 0" fill="#ff2c5c"/><path d="m482.261719 29.738281c-3.625-3.625-7.492188-6.90625-11.558594-9.859375 36.359375 50.089844 21.960937 131.449219-36.085937 189.496094-58.042969 58.042969-139.398438 72.441406-189.488282 36.078125 2.949219 4.070313 6.230469 7.933594 9.855469 11.558594 48.28125 48.28125 138.292969 36.535156 201.050781-26.21875 62.761719-62.761719 74.503906-152.777344 26.226563-201.054688zm0 0" fill="#e62753"/><path d="m173.015625 386.71875-47.734375-47.734375c-1.300781-1.300781-1.300781-3.410156 0-4.714844l17.140625-17.140625c1.300781-1.300781 3.410156-1.300781 4.710937 0l47.738282 47.738282c1.300781 1.300781 1.300781 3.410156 0 4.710937l-17.140625 17.140625c-1.304688 1.300781-3.414063 1.300781-4.714844 0zm0 0" fill="#ffd659"/><path d="m194.867188 364.867188-21.851563-21.855469c1.300781 1.300781 1.300781 3.410156 0 4.714843l-17.140625 17.140626c-1.300781 1.300781-3.410156 1.300781-4.714844 0l21.855469 21.851562c1.300781 1.300781 3.410156 1.300781 4.710937 0l17.140626-17.140625c1.304687-1.300781 1.304687-3.410156 0-4.710937zm0 0" fill="#ffbd54"/></svg>